<svg width="145" height="36" viewBox="0 0 145 36" fill="none" xmlns="http://www.w3.org/2000/svg">
<path d="M81.6498 23.951C75.2177 35.0918 65.4382 18.1532 78.3024 18.1532C65.4382 18.1532 75.2176 1.21476 81.6498 12.3556C75.2177 1.21482 94.7765 1.21482 88.3444 12.3556C94.7765 1.21476 104.556 18.1532 91.6917 18.1532C104.556 18.1532 94.7765 35.0918 88.3444 23.951C94.7765 35.0918 75.2177 35.0918 81.6498 23.951Z" fill="#D5BBFC"/>
<path d="M85 22C87.2091 22 89 20.2091 89 18C89 15.7909 87.2091 14 85 14C82.7909 14 81 15.7909 81 18C81 20.2091 82.7909 22 85 22Z" fill="#6A548D"/>
<path d="M11.68 35.84C9.17333 35.84 7.04 35.4133 5.28 34.56C3.54667 33.7067 2.22667 32.5333 1.32 31.04C0.44 29.5733 0 27.9333 0 26.12C0 25.4533 0.0666666 24.6267 0.2 23.64C0.36 22.6267 0.613333 21.6267 0.96 20.64C1.33333 19.6267 1.82667 18.7867 2.44 18.12C3.08 17.4267 3.89333 17.08 4.88 17.08C5.22667 17.08 5.53333 17.12 5.8 17.2C6.06667 17.28 6.29333 17.3867 6.48 17.52C6.69333 17.6267 6.86667 17.7467 7 17.88C6.04 18.68 5.32 19.5733 4.84 20.56C4.36 21.5467 4.02667 22.5067 3.84 23.44C3.68 24.3467 3.6 25.1467 3.6 25.84C3.6 28.3733 4.33333 30.2 5.8 31.32C7.29333 32.4667 9.24 33.04 11.64 33.04C13.9867 33.04 15.68 32.4933 16.72 31.4C17.7867 30.3333 18.32 28.5467 18.32 26.04V8.96C18.32 8.29333 18.4933 7.84 18.84 7.6C19.1867 7.33333 19.6133 7.2 20.12 7.2C20.6267 7.2 21.0533 7.33333 21.4 7.6C21.7467 7.84 21.92 8.29333 21.92 8.96V26.04C21.92 29.0267 21.1067 31.4 19.48 33.16C17.8533 34.9467 15.2533 35.84 11.68 35.84ZM11 7.2C10.3333 7.2 9.77333 6.97333 9.32 6.52C8.86667 6.06667 8.64 5.53333 8.64 4.92C8.64 4.28 8.86667 3.73333 9.32 3.28C9.77333 2.82667 10.3333 2.6 11 2.6C11.6133 2.6 12.1467 2.82667 12.6 3.28C13.0533 3.73333 13.28 4.28 13.28 4.92C13.28 5.53333 13.0533 6.06667 12.6 6.52C12.1467 6.97333 11.6133 7.2 11 7.2Z" fill="white"/>
<path d="M43.0684 26.4V23.6H45.6684V26.4H43.0684ZM35.2684 26.4C33.6951 26.4 32.2951 26.0267 31.0684 25.28C29.8418 24.5067 28.8818 23.4 28.1884 21.96C27.4951 20.52 27.1484 18.7867 27.1484 16.76C27.1484 13.7467 27.9618 11.4 29.5884 9.72C31.2418 8.04 33.4418 7.2 36.1884 7.2C38.2151 7.2 39.8684 7.61333 41.1484 8.44C42.4284 9.26667 43.0684 10.3333 43.0684 11.64V26.4H39.4684V11.64C39.4684 11.1333 39.2018 10.7333 38.6684 10.44C38.1618 10.1467 37.3351 10 36.1884 10C34.4284 10 33.0818 10.5733 32.1484 11.72C31.2151 12.84 30.7484 14.52 30.7484 16.76C30.7484 18.9733 31.2418 20.6667 32.2284 21.84C33.2151 23.0133 34.6284 23.6 36.4684 23.6H43.0684V26.4H35.2684ZM38.1884 35.56C37.8418 35.56 37.5351 35.52 37.2684 35.44C37.0018 35.36 36.7618 35.2533 36.5484 35.12C36.3618 34.9867 36.2018 34.8667 36.0684 34.76C37.1351 33.8533 37.8951 32.8933 38.3484 31.88C38.8284 30.8667 39.1351 29.8667 39.2684 28.88C39.4018 27.92 39.4684 27.0933 39.4684 26.4V23.6H43.0684V26.4C43.0684 27.3333 42.9884 28.3333 42.8284 29.4C42.6684 30.4667 42.4018 31.4667 42.0284 32.4C41.6551 33.3333 41.1484 34.0933 40.5084 34.68C39.8951 35.2667 39.1218 35.56 38.1884 35.56ZM45.6684 26.4V23.6C45.9884 23.6 46.2018 23.72 46.3084 23.96C46.4151 24.2 46.4684 24.5467 46.4684 25C46.4684 25.4267 46.4151 25.7733 46.3084 26.04C46.2018 26.28 45.9884 26.4 45.6684 26.4Z" fill="white"/>
<path d="M45.6813 26.4V23.6H54.2013C56.0413 23.6 57.4546 23.0133 58.4412 21.84C59.4279 20.6667 59.9212 18.9733 59.9212 16.76C59.9212 14.52 59.4546 12.84 58.5213 11.72C57.5879 10.5733 56.2413 10 54.4813 10C53.3346 10 52.4946 10.1467 51.9613 10.44C51.4546 10.7333 51.2013 11.1333 51.2013 11.64V26.4H47.6012V11.64C47.6012 10.3333 48.2413 9.26667 49.5213 8.44C50.8013 7.61333 52.4546 7.2 54.4813 7.2C57.2546 7.2 59.4546 8.04 61.0812 9.72C62.7079 11.4 63.5213 13.7467 63.5213 16.76C63.5213 18.7867 63.1746 20.52 62.4813 21.96C61.7879 23.4 60.8279 24.5067 59.6012 25.28C58.3746 26.0267 56.9746 26.4 55.4012 26.4H45.6813ZM45.6813 26.4C45.3613 26.4 45.1479 26.28 45.0412 26.04C44.9346 25.7733 44.8812 25.4267 44.8812 25C44.8812 24.5467 44.9346 24.2 45.0412 23.96C45.1479 23.72 45.3613 23.6 45.6813 23.6V26.4Z" fill="white"/>
<path d="M109.031 35.56C108.684 35.56 108.378 35.52 108.111 35.44C107.844 35.36 107.604 35.2533 107.391 35.12C107.204 34.9867 107.044 34.8667 106.911 34.76C107.978 33.8533 108.738 32.8933 109.191 31.88C109.671 30.8667 109.978 29.8667 110.111 28.88C110.244 27.92 110.311 27.0933 110.311 26.4V8.96C110.311 8.29333 110.484 7.84 110.831 7.6C111.178 7.33333 111.604 7.2 112.111 7.2C112.618 7.2 113.044 7.33333 113.391 7.6C113.738 7.84 113.911 8.29333 113.911 8.96V26.4C113.911 27.3333 113.831 28.3333 113.671 29.4C113.511 30.4667 113.244 31.4667 112.871 32.4C112.498 33.3333 111.991 34.0933 111.351 34.68C110.738 35.2667 109.964 35.56 109.031 35.56ZM112.151 4.6C111.484 4.6 110.924 4.37333 110.471 3.92C110.018 3.46667 109.791 2.93333 109.791 2.32C109.791 1.68 110.018 1.13333 110.471 0.680001C110.924 0.226667 111.484 0 112.151 0C112.764 0 113.298 0.226667 113.751 0.680001C114.204 1.13333 114.431 1.68 114.431 2.32C114.431 2.93333 114.204 3.46667 113.751 3.92C113.298 4.37333 112.764 4.6 112.151 4.6Z" fill="white"/>
<path d="M126.44 26.4C124.867 26.4 123.467 26.0267 122.24 25.28C121.014 24.5067 120.054 23.4 119.36 21.96C118.667 20.52 118.32 18.7867 118.32 16.76C118.32 13.7467 119.134 11.4 120.76 9.72C122.414 8.04 124.614 7.2 127.36 7.2C129.387 7.2 131.04 7.61333 132.32 8.44C133.6 9.26667 134.24 10.3333 134.24 11.64V26.4H130.64V11.64C130.64 11.1333 130.374 10.7333 129.84 10.44C129.334 10.1467 128.507 10 127.36 10C125.6 10 124.254 10.5733 123.32 11.72C122.387 12.84 121.92 14.52 121.92 16.76C121.92 18.9733 122.414 20.6667 123.4 21.84C124.387 23.0133 125.8 23.6 127.64 23.6H134.24V26.4H126.44ZM129.36 35.56C129.014 35.56 128.707 35.52 128.44 35.44C128.174 35.36 127.934 35.2533 127.72 35.12C127.534 34.9867 127.374 34.8667 127.24 34.76C128.307 33.8533 129.067 32.8933 129.52 31.88C130 30.8667 130.307 29.8667 130.44 28.88C130.574 27.92 130.64 27.0933 130.64 26.4V23.6H134.24V26.4C134.24 27.3333 134.16 28.3333 134 29.4C133.84 30.4667 133.574 31.4667 133.2 32.4C132.827 33.3333 132.32 34.0933 131.68 34.68C131.067 35.2667 130.294 35.56 129.36 35.56Z" fill="white"/>
<path d="M139.773 35.56C139.426 35.56 139.12 35.52 138.853 35.44C138.586 35.36 138.346 35.2533 138.133 35.12C137.946 34.9867 137.786 34.8667 137.653 34.76C138.72 33.8533 139.48 32.8933 139.933 31.88C140.413 30.8667 140.72 29.8667 140.853 28.88C140.986 27.92 141.053 27.0933 141.053 26.4V8.96C141.053 8.29333 141.226 7.84 141.573 7.6C141.92 7.33333 142.346 7.2 142.853 7.2C143.36 7.2 143.786 7.33333 144.133 7.6C144.48 7.84 144.653 8.29333 144.653 8.96V26.4C144.653 27.3333 144.573 28.3333 144.413 29.4C144.253 30.4667 143.986 31.4667 143.613 32.4C143.24 33.3333 142.733 34.0933 142.093 34.68C141.48 35.2667 140.706 35.56 139.773 35.56Z" fill="white"/>
</svg>
