<svg width="224" height="30" viewBox="0 0 224 30" fill="none" xmlns="http://www.w3.org/2000/svg">
<path d="M21.16 28C20.2533 28 19.4133 27.8267 18.64 27.48C17.8933 27.1067 17.1467 26.5067 16.4 25.68C15.68 24.8267 14.88 23.6667 14 22.2L10 15.4H7.2V27.6H3.6V6.00003C3.6 4.80003 3.42667 3.84002 3.08 3.12002C2.76 2.37336 2 2.00002 0.8 2.00002H0V1.20002H10.4C11.0667 1.20002 11.84 1.25336 12.72 1.36002C13.6 1.44002 14.48 1.61336 15.36 1.88002C16.2667 2.14669 17.0933 2.54669 17.84 3.08002C18.6133 3.61335 19.2267 4.30669 19.68 5.16002C20.16 6.01336 20.4 7.08003 20.4 8.36003C20.4 9.88003 20.0667 11.1067 19.4 12.04C18.76 12.9467 17.9467 13.64 16.96 14.12C15.9733 14.6 14.9867 14.96 14 15.2L18.2 22.2C19.2133 23.9067 20.12 25.08 20.92 25.72C21.72 26.3334 22.6133 26.6934 23.6 26.8V27.6C23.3867 27.7067 23.0533 27.8 22.6 27.88C22.1733 27.96 21.6933 28 21.16 28ZM7.2 14H10.08C10.6667 14 11.32 13.8934 12.04 13.68C12.76 13.4667 13.4533 13.1467 14.12 12.72C14.7867 12.2667 15.3333 11.68 15.76 10.96C16.1867 10.24 16.4 9.36003 16.4 8.32003C16.4 7.28003 16.1867 6.40002 15.76 5.68002C15.3333 4.96002 14.7867 4.37336 14.12 3.92002C13.4533 3.46669 12.76 3.13336 12.04 2.92002C11.32 2.70669 10.6667 2.60003 10.08 2.60003C9.65333 2.60003 9.16 2.64002 8.6 2.72002C8.06667 2.80002 7.6 2.89336 7.2 3.00003V14Z" fill="#1D1A20"/>
<path d="M52.3122 27.6V26.8L68.9122 2.80002H59.3122C57.7122 2.80002 56.4722 3.17336 55.5922 3.92002C54.7389 4.64003 54.3122 5.80002 54.3122 7.40002H53.5122V4.40002C53.5122 3.86669 53.6055 3.36002 53.7922 2.88002C53.9789 2.37336 54.3122 1.97336 54.7922 1.68003C55.2989 1.36003 56.0055 1.20002 56.9122 1.20002H74.3122L57.3122 26H73.7122V27.6H52.3122Z" fill="#1D1A20"/>
<path d="M79.225 27.6V6.00003C79.225 4.80003 79.0517 3.84002 78.705 3.12002C78.385 2.37336 77.625 2.00002 76.425 2.00002H75.625V1.20002H92.665C93.5983 1.20002 94.305 1.36003 94.785 1.68003C95.265 1.97336 95.5983 2.37336 95.785 2.88002C95.9717 3.36002 96.065 3.86669 96.065 4.40002V7.40002H95.265C95.265 5.80002 94.825 4.64003 93.945 3.92002C93.0917 3.17336 91.865 2.80002 90.265 2.80002H82.825V13.2H93.625V14.8H82.825V26H89.825C91.6383 26 93.065 25.6667 94.105 25C95.1717 24.3334 96.0117 23.2 96.625 21.6L97.425 21.8L96.025 25.6C95.8117 26.2134 95.4517 26.7067 94.945 27.08C94.465 27.4267 93.825 27.6 93.025 27.6H79.225Z" fill="#1D1A20"/>
<path d="M142.219 29.4C140.299 29.4 138.792 29.0934 137.699 28.48C136.632 27.8934 135.885 26.9734 135.459 25.72C135.032 24.44 134.819 22.8 134.819 20.8V5.40002L124.819 27.6H124.019L113.619 5.00003V27.6H112.019V1.20002H115.819L125.419 22L134.819 1.20002H138.419V20.8C138.419 23.2267 138.725 25.1334 139.339 26.52C139.952 27.9067 140.912 28.6 142.219 28.6V29.4Z" fill="#1D1A20"/>
<path d="M156.686 28.4C154.153 28.4 151.953 27.7867 150.086 26.56C148.246 25.3067 146.819 23.6267 145.806 21.52C144.793 19.3867 144.286 17.0134 144.286 14.4C144.286 11.7867 144.793 9.42669 145.806 7.32003C146.819 5.18669 148.246 3.50669 150.086 2.28003C151.953 1.02669 154.153 0.400024 156.686 0.400024C159.219 0.400024 161.406 1.02669 163.246 2.28003C165.113 3.50669 166.553 5.18669 167.566 7.32003C168.579 9.42669 169.086 11.7867 169.086 14.4C169.086 17.0134 168.579 19.3867 167.566 21.52C166.553 23.6267 165.113 25.3067 163.246 26.56C161.406 27.7867 159.219 28.4 156.686 28.4ZM156.686 26.8C158.446 26.8 159.953 26.2934 161.206 25.28C162.459 24.2667 163.419 22.84 164.086 21C164.753 19.1334 165.086 16.9334 165.086 14.4C165.086 11.8667 164.753 9.68002 164.086 7.84002C163.419 5.97336 162.459 4.53336 161.206 3.52002C159.953 2.50669 158.446 2.00002 156.686 2.00002C154.953 2.00002 153.446 2.50669 152.166 3.52002C150.913 4.53336 149.953 5.97336 149.286 7.84002C148.619 9.68002 148.286 11.8667 148.286 14.4C148.286 16.9334 148.619 19.1334 149.286 21C149.953 22.84 150.913 24.2667 152.166 25.28C153.446 26.2934 154.953 26.8 156.686 26.8Z" fill="#1D1A20"/>
<path d="M185.163 28.4C182.629 28.4 180.429 27.7867 178.562 26.56C176.722 25.3067 175.296 23.6267 174.283 21.52C173.269 19.3867 172.762 17.0134 172.762 14.4C172.762 11.7867 173.269 9.42669 174.283 7.32003C175.296 5.18669 176.722 3.50669 178.562 2.28003C180.429 1.02669 182.629 0.400024 185.163 0.400024C187.696 0.400024 189.883 1.02669 191.723 2.28003C193.589 3.50669 195.029 5.18669 196.042 7.32003C197.056 9.42669 197.562 11.7867 197.562 14.4C197.562 17.0134 197.056 19.3867 196.042 21.52C195.029 23.6267 193.589 25.3067 191.723 26.56C189.883 27.7867 187.696 28.4 185.163 28.4ZM185.163 26.8C186.923 26.8 188.429 26.2934 189.682 25.28C190.936 24.2667 191.896 22.84 192.562 21C193.229 19.1334 193.562 16.9334 193.562 14.4C193.562 11.8667 193.229 9.68002 192.562 7.84002C191.896 5.97336 190.936 4.53336 189.682 3.52002C188.429 2.50669 186.923 2.00002 185.163 2.00002C183.429 2.00002 181.923 2.50669 180.643 3.52002C179.389 4.53336 178.429 5.97336 177.762 7.84002C177.096 9.68002 176.762 11.8667 176.762 14.4C176.762 16.9334 177.096 19.1334 177.762 21C178.429 22.84 179.389 24.2667 180.643 25.28C181.923 26.2934 183.429 26.8 185.163 26.8Z" fill="#1D1A20"/>
<path d="M222.326 28L205.126 6.60003V27.6H203.526V6.00003C203.526 4.80003 203.272 3.84002 202.766 3.12002C202.259 2.37336 201.312 2.00002 199.926 2.00002H199.526V1.20002H202.126C203.432 1.20002 204.499 1.41336 205.326 1.84002C206.179 2.26669 206.912 2.85336 207.526 3.60003L221.526 21V1.20002H223.126V28H222.326Z" fill="#1D1A20"/>
<path d="M33.6498 20.351C27.2177 31.4918 17.4382 14.5533 30.3024 14.5533C17.4382 14.5533 27.2176 -2.38522 33.6498 8.75558C27.2177 -2.38516 46.7765 -2.38516 40.3444 8.75558C46.7765 -2.38522 56.556 14.5533 43.6917 14.5533C56.556 14.5533 46.7765 31.4918 40.3444 20.351C46.7765 31.4918 27.2177 31.4918 33.6498 20.351Z" fill="#6A548D"/>
<path d="M37 18.4C39.2091 18.4 41 16.6092 41 14.4001C41 12.1909 39.2091 10.4 37 10.4C34.7909 10.4 33 12.1909 33 14.4001C33 16.6092 34.7909 18.4 37 18.4Z" fill="#D5BBFC"/>
</svg>
