<svg width="224" height="29" viewBox="0 0 224 29" fill="none" xmlns="http://www.w3.org/2000/svg">
<path d="M21.16 27.6C20.2533 27.6 19.4133 27.4267 18.64 27.08C17.8933 26.7067 17.1467 26.1067 16.4 25.28C15.68 24.4267 14.88 23.2667 14 21.8L10 15H7.2V27.2H3.6V5.6C3.6 4.4 3.42667 3.44 3.08 2.72C2.76 1.97333 2 1.6 0.8 1.6H0V0.799999H10.4C11.0667 0.799999 11.84 0.853332 12.72 0.959999C13.6 1.04 14.48 1.21333 15.36 1.48C16.2667 1.74667 17.0933 2.14666 17.84 2.68C18.6133 3.21333 19.2267 3.90666 19.68 4.76C20.16 5.61333 20.4 6.68 20.4 7.96C20.4 9.48 20.0667 10.7067 19.4 11.64C18.76 12.5467 17.9467 13.24 16.96 13.72C15.9733 14.2 14.9867 14.56 14 14.8L18.2 21.8C19.2133 23.5067 20.12 24.68 20.92 25.32C21.72 25.9333 22.6133 26.2933 23.6 26.4V27.2C23.3867 27.3067 23.0533 27.4 22.6 27.48C22.1733 27.56 21.6933 27.6 21.16 27.6ZM7.2 13.6H10.08C10.6667 13.6 11.32 13.4933 12.04 13.28C12.76 13.0667 13.4533 12.7467 14.12 12.32C14.7867 11.8667 15.3333 11.28 15.76 10.56C16.1867 9.83999 16.4 8.96 16.4 7.92C16.4 6.88 16.1867 6 15.76 5.27999C15.3333 4.55999 14.7867 3.97333 14.12 3.52C13.4533 3.06667 12.76 2.73333 12.04 2.52C11.32 2.30667 10.6667 2.2 10.08 2.2C9.65333 2.2 9.16 2.24 8.6 2.32C8.06667 2.4 7.6 2.49334 7.2 2.6V13.6Z" fill="white"/>
<path d="M52.3122 27.2V26.4L68.9122 2.4H59.3122C57.7122 2.4 56.4722 2.77333 55.5922 3.52C54.7389 4.24 54.3122 5.4 54.3122 7H53.5122V4C53.5122 3.46666 53.6055 2.96 53.7922 2.48C53.9789 1.97333 54.3122 1.57334 54.7922 1.28C55.2989 0.960002 56.0055 0.799999 56.9122 0.799999H74.3122L57.3122 25.6H73.7122V27.2H52.3122Z" fill="white"/>
<path d="M79.225 27.2V5.6C79.225 4.4 79.0517 3.44 78.705 2.72C78.385 1.97333 77.625 1.6 76.425 1.6H75.625V0.799999H92.665C93.5983 0.799999 94.305 0.960002 94.785 1.28C95.265 1.57334 95.5983 1.97333 95.785 2.48C95.9717 2.96 96.065 3.46666 96.065 4V7H95.265C95.265 5.4 94.825 4.24 93.945 3.52C93.0917 2.77333 91.865 2.4 90.265 2.4H82.825V12.8H93.625V14.4H82.825V25.6H89.825C91.6383 25.6 93.065 25.2667 94.105 24.6C95.1717 23.9333 96.0117 22.8 96.625 21.2L97.425 21.4L96.025 25.2C95.8117 25.8133 95.4517 26.3067 94.945 26.68C94.465 27.0267 93.825 27.2 93.025 27.2H79.225Z" fill="white"/>
<path d="M142.219 29C140.299 29 138.792 28.6933 137.699 28.08C136.632 27.4933 135.885 26.5733 135.459 25.32C135.032 24.04 134.819 22.4 134.819 20.4V5L124.819 27.2H124.019L113.619 4.6V27.2H112.019V0.799999H115.819L125.419 21.6L134.819 0.799999H138.419V20.4C138.419 22.8267 138.725 24.7333 139.339 26.12C139.952 27.5067 140.912 28.2 142.219 28.2V29Z" fill="white"/>
<path d="M156.686 28C154.153 28 151.953 27.3867 150.086 26.16C148.246 24.9067 146.819 23.2267 145.806 21.12C144.793 18.9867 144.286 16.6133 144.286 14C144.286 11.3867 144.793 9.02667 145.806 6.92C146.819 4.78667 148.246 3.10667 150.086 1.88C151.953 0.626668 154.153 0 156.686 0C159.219 0 161.406 0.626668 163.246 1.88C165.113 3.10667 166.553 4.78667 167.566 6.92C168.579 9.02667 169.086 11.3867 169.086 14C169.086 16.6133 168.579 18.9867 167.566 21.12C166.553 23.2267 165.113 24.9067 163.246 26.16C161.406 27.3867 159.219 28 156.686 28ZM156.686 26.4C158.446 26.4 159.953 25.8933 161.206 24.88C162.459 23.8667 163.419 22.44 164.086 20.6C164.753 18.7333 165.086 16.5333 165.086 14C165.086 11.4667 164.753 9.28 164.086 7.44C163.419 5.57333 162.459 4.13333 161.206 3.12C159.953 2.10667 158.446 1.6 156.686 1.6C154.953 1.6 153.446 2.10667 152.166 3.12C150.913 4.13333 149.953 5.57333 149.286 7.44C148.619 9.28 148.286 11.4667 148.286 14C148.286 16.5333 148.619 18.7333 149.286 20.6C149.953 22.44 150.913 23.8667 152.166 24.88C153.446 25.8933 154.953 26.4 156.686 26.4Z" fill="white"/>
<path d="M185.163 28C182.629 28 180.429 27.3867 178.562 26.16C176.722 24.9067 175.296 23.2267 174.283 21.12C173.269 18.9867 172.762 16.6133 172.762 14C172.762 11.3867 173.269 9.02667 174.283 6.92C175.296 4.78667 176.722 3.10667 178.562 1.88C180.429 0.626668 182.629 0 185.163 0C187.696 0 189.883 0.626668 191.723 1.88C193.589 3.10667 195.029 4.78667 196.042 6.92C197.056 9.02667 197.562 11.3867 197.562 14C197.562 16.6133 197.056 18.9867 196.042 21.12C195.029 23.2267 193.589 24.9067 191.723 26.16C189.883 27.3867 187.696 28 185.163 28ZM185.163 26.4C186.923 26.4 188.429 25.8933 189.682 24.88C190.936 23.8667 191.896 22.44 192.562 20.6C193.229 18.7333 193.562 16.5333 193.562 14C193.562 11.4667 193.229 9.28 192.562 7.44C191.896 5.57333 190.936 4.13333 189.682 3.12C188.429 2.10667 186.923 1.6 185.163 1.6C183.429 1.6 181.923 2.10667 180.643 3.12C179.389 4.13333 178.429 5.57333 177.762 7.44C177.096 9.28 176.762 11.4667 176.762 14C176.762 16.5333 177.096 18.7333 177.762 20.6C178.429 22.44 179.389 23.8667 180.643 24.88C181.923 25.8933 183.429 26.4 185.163 26.4Z" fill="white"/>
<path d="M222.326 27.6L205.126 6.2V27.2H203.526V5.6C203.526 4.4 203.272 3.44 202.766 2.72C202.259 1.97333 201.312 1.6 199.926 1.6H199.526V0.799999H202.126C203.432 0.799999 204.499 1.01333 205.326 1.44C206.179 1.86667 206.912 2.45333 207.526 3.2L221.526 20.6V0.799999H223.126V27.6H222.326Z" fill="white"/>
<path d="M33.6498 19.951C27.2177 31.0918 17.4382 14.1532 30.3024 14.1532C17.4382 14.1532 27.2176 -2.78524 33.6498 8.35555C27.2177 -2.78518 46.7765 -2.78518 40.3444 8.35555C46.7765 -2.78524 56.556 14.1532 43.6917 14.1532C56.556 14.1532 46.7765 31.0918 40.3444 19.951C46.7765 31.0918 27.2177 31.0918 33.6498 19.951Z" fill="#D5BBFC"/>
<path d="M37 18C39.2091 18 41 16.2091 41 14C41 11.7909 39.2091 10 37 10C34.7909 10 33 11.7909 33 14C33 16.2091 34.7909 18 37 18Z" fill="#6A548D"/>
</svg>
