<svg width="140" height="153" viewBox="0 0 140 153" fill="none" xmlns="http://www.w3.org/2000/svg">
<path d="M51.9719 107.452C17.3298 167.455 -35.3407 76.2268 33.9438 76.2268C-35.3407 76.2268 17.3295 -15.0008 51.9719 45.0015C17.3298 -15.0005 122.67 -15.0005 88.0281 45.0015C122.67 -15.0008 175.341 76.2268 106.056 76.2268C175.341 76.2268 122.67 167.455 88.0281 107.452C122.67 167.455 17.3298 167.455 51.9719 107.452Z" fill="#D5BBFC"/>
<path d="M70.0155 96.9448C81.9137 96.9448 91.559 87.2996 91.559 75.4017C91.559 63.5035 81.9137 53.8582 70.0155 53.8582C58.1176 53.8582 48.4724 63.5035 48.4724 75.4017C48.4724 87.2996 58.1176 96.9448 70.0155 96.9448Z" fill="#6A548D"/>
</svg>
